<mxfile host="Electron" modified="2023-12-06T22:36:06.457Z" agent="Mozilla/5.0 (Windows NT 10.0; Win64; x64) AppleWebKit/537.36 (KHTML, like Gecko) draw.io/22.1.2 Chrome/114.0.5735.289 Electron/25.9.4 Safari/537.36" etag="cDbHcPzL26oxCy5QIdO1" version="22.1.2" type="device">
  <diagram name="Page-1" id="dC8sB8LTiM5v0IOeK6bp">
    <mxGraphModel dx="4607" dy="2007" grid="0" gridSize="10" guides="1" tooltips="1" connect="1" arrows="1" fold="1" page="0" pageScale="1" pageWidth="850" pageHeight="1100" math="0" shadow="0">
      <root>
        <mxCell id="0" />
        <mxCell id="1" parent="0" />
        <mxCell id="yN8mX1wbEfo4K8Nz7WSZ-1" value="&lt;i&gt;&amp;lt;&amp;lt; abstract &amp;gt;&amp;gt;&lt;br&gt;EncoderABC&lt;/i&gt;" style="swimlane;fontStyle=1;align=center;verticalAlign=top;childLayout=stackLayout;horizontal=1;startSize=40;horizontalStack=0;resizeParent=1;resizeParentMax=0;resizeLast=0;collapsible=1;marginBottom=0;whiteSpace=wrap;html=1;strokeColor=#464F55;fontColor=#FFFFFF;fillColor=#2C6879;rounded=1;labelBackgroundColor=none;" parent="1" vertex="1">
          <mxGeometry x="-1382" y="142" width="220" height="100" as="geometry">
            <mxRectangle x="299" y="276" width="120" height="40" as="alternateBounds" />
          </mxGeometry>
        </mxCell>
        <mxCell id="yN8mX1wbEfo4K8Nz7WSZ-2" value="&amp;nbsp;" style="text;strokeColor=none;fillColor=none;align=left;verticalAlign=top;spacingLeft=4;spacingRight=4;overflow=hidden;rotatable=0;points=[[0,0.5],[1,0.5]];portConstraint=eastwest;whiteSpace=wrap;html=1;fontColor=#464F55;rounded=1;labelBackgroundColor=none;" parent="yN8mX1wbEfo4K8Nz7WSZ-1" vertex="1">
          <mxGeometry y="40" width="220" height="20" as="geometry" />
        </mxCell>
        <mxCell id="yN8mX1wbEfo4K8Nz7WSZ-3" value="" style="line;strokeWidth=1;fillColor=none;align=left;verticalAlign=middle;spacingTop=-1;spacingLeft=3;spacingRight=3;rotatable=0;labelPosition=right;points=[];portConstraint=eastwest;strokeColor=#464F55;fontColor=#1A1A1A;rounded=1;labelBackgroundColor=none;" parent="yN8mX1wbEfo4K8Nz7WSZ-1" vertex="1">
          <mxGeometry y="60" width="220" height="8" as="geometry" />
        </mxCell>
        <mxCell id="yN8mX1wbEfo4K8Nz7WSZ-4" value="&amp;nbsp;" style="text;strokeColor=none;fillColor=none;align=left;verticalAlign=top;spacingLeft=4;spacingRight=4;overflow=hidden;rotatable=0;points=[[0,0.5],[1,0.5]];portConstraint=eastwest;whiteSpace=wrap;html=1;fontColor=#464F55;rounded=1;labelBackgroundColor=none;" parent="yN8mX1wbEfo4K8Nz7WSZ-1" vertex="1">
          <mxGeometry y="68" width="220" height="32" as="geometry" />
        </mxCell>
        <mxCell id="yN8mX1wbEfo4K8Nz7WSZ-5" value="" style="endArrow=none;dashed=1;html=1;rounded=0;opacity=40;" parent="1" edge="1">
          <mxGeometry width="50" height="50" relative="1" as="geometry">
            <mxPoint x="-1528" y="1016.62" as="sourcePoint" />
            <mxPoint x="-1528" y="-13.379999999999999" as="targetPoint" />
          </mxGeometry>
        </mxCell>
        <mxCell id="yN8mX1wbEfo4K8Nz7WSZ-6" value="" style="endArrow=none;dashed=1;html=1;rounded=0;opacity=40;" parent="1" edge="1">
          <mxGeometry width="50" height="50" relative="1" as="geometry">
            <mxPoint x="-466" y="976" as="sourcePoint" />
            <mxPoint x="-466" y="-7" as="targetPoint" />
          </mxGeometry>
        </mxCell>
        <mxCell id="yN8mX1wbEfo4K8Nz7WSZ-7" value="&lt;i&gt;&amp;lt;&amp;lt; abstract &amp;gt;&amp;gt;&lt;br&gt;DecoderABC&lt;/i&gt;" style="swimlane;fontStyle=1;align=center;verticalAlign=top;childLayout=stackLayout;horizontal=1;startSize=40;horizontalStack=0;resizeParent=1;resizeParentMax=0;resizeLast=0;collapsible=1;marginBottom=0;whiteSpace=wrap;html=1;strokeColor=#464F55;fontColor=#FFFFFF;fillColor=#2C6879;rounded=1;labelBackgroundColor=none;" parent="1" vertex="1">
          <mxGeometry x="-1386.75" y="526" width="220" height="100" as="geometry">
            <mxRectangle x="299" y="276" width="120" height="40" as="alternateBounds" />
          </mxGeometry>
        </mxCell>
        <mxCell id="yN8mX1wbEfo4K8Nz7WSZ-8" value="&amp;nbsp;" style="text;strokeColor=none;fillColor=none;align=left;verticalAlign=top;spacingLeft=4;spacingRight=4;overflow=hidden;rotatable=0;points=[[0,0.5],[1,0.5]];portConstraint=eastwest;whiteSpace=wrap;html=1;fontColor=#464F55;rounded=1;labelBackgroundColor=none;" parent="yN8mX1wbEfo4K8Nz7WSZ-7" vertex="1">
          <mxGeometry y="40" width="220" height="20" as="geometry" />
        </mxCell>
        <mxCell id="yN8mX1wbEfo4K8Nz7WSZ-9" value="" style="line;strokeWidth=1;fillColor=none;align=left;verticalAlign=middle;spacingTop=-1;spacingLeft=3;spacingRight=3;rotatable=0;labelPosition=right;points=[];portConstraint=eastwest;strokeColor=#464F55;fontColor=#1A1A1A;rounded=1;labelBackgroundColor=none;" parent="yN8mX1wbEfo4K8Nz7WSZ-7" vertex="1">
          <mxGeometry y="60" width="220" height="8" as="geometry" />
        </mxCell>
        <mxCell id="yN8mX1wbEfo4K8Nz7WSZ-10" value="&amp;nbsp;" style="text;strokeColor=none;fillColor=none;align=left;verticalAlign=top;spacingLeft=4;spacingRight=4;overflow=hidden;rotatable=0;points=[[0,0.5],[1,0.5]];portConstraint=eastwest;whiteSpace=wrap;html=1;fontColor=#464F55;rounded=1;labelBackgroundColor=none;" parent="yN8mX1wbEfo4K8Nz7WSZ-7" vertex="1">
          <mxGeometry y="68" width="220" height="32" as="geometry" />
        </mxCell>
        <mxCell id="yN8mX1wbEfo4K8Nz7WSZ-11" value="&lt;br&gt;Name1Encoder" style="swimlane;fontStyle=1;align=center;verticalAlign=top;childLayout=stackLayout;horizontal=1;startSize=40;horizontalStack=0;resizeParent=1;resizeParentMax=0;resizeLast=0;collapsible=1;marginBottom=0;whiteSpace=wrap;html=1;strokeColor=#464F55;fontColor=#FFFFFF;fillColor=#2C6879;rounded=1;labelBackgroundColor=none;" parent="1" vertex="1">
          <mxGeometry x="-1382" y="258" width="220" height="100" as="geometry">
            <mxRectangle x="299" y="276" width="120" height="40" as="alternateBounds" />
          </mxGeometry>
        </mxCell>
        <mxCell id="yN8mX1wbEfo4K8Nz7WSZ-30" style="edgeStyle=orthogonalEdgeStyle;rounded=0;orthogonalLoop=1;jettySize=auto;html=1;exitX=0;exitY=0.5;exitDx=0;exitDy=0;endArrow=none;endFill=0;dashed=1;" parent="yN8mX1wbEfo4K8Nz7WSZ-11" source="yN8mX1wbEfo4K8Nz7WSZ-12" edge="1">
          <mxGeometry relative="1" as="geometry">
            <mxPoint x="-21" y="50.333333333333485" as="targetPoint" />
          </mxGeometry>
        </mxCell>
        <mxCell id="YMNnF1_kSBJPY39AivQV-12" style="edgeStyle=orthogonalEdgeStyle;rounded=0;orthogonalLoop=1;jettySize=auto;html=1;exitX=1;exitY=0.5;exitDx=0;exitDy=0;endArrow=none;endFill=0;endSize=10;startSize=10;startArrow=open;startFill=0;" edge="1" parent="yN8mX1wbEfo4K8Nz7WSZ-11" source="yN8mX1wbEfo4K8Nz7WSZ-12">
          <mxGeometry relative="1" as="geometry">
            <mxPoint x="372" y="52" as="targetPoint" />
          </mxGeometry>
        </mxCell>
        <mxCell id="yN8mX1wbEfo4K8Nz7WSZ-12" value="&amp;nbsp;" style="text;strokeColor=none;fillColor=none;align=left;verticalAlign=top;spacingLeft=4;spacingRight=4;overflow=hidden;rotatable=0;points=[[0,0.5],[1,0.5]];portConstraint=eastwest;whiteSpace=wrap;html=1;fontColor=#464F55;rounded=1;labelBackgroundColor=none;" parent="yN8mX1wbEfo4K8Nz7WSZ-11" vertex="1">
          <mxGeometry y="40" width="220" height="20" as="geometry" />
        </mxCell>
        <mxCell id="yN8mX1wbEfo4K8Nz7WSZ-13" value="" style="line;strokeWidth=1;fillColor=none;align=left;verticalAlign=middle;spacingTop=-1;spacingLeft=3;spacingRight=3;rotatable=0;labelPosition=right;points=[];portConstraint=eastwest;strokeColor=#464F55;fontColor=#1A1A1A;rounded=1;labelBackgroundColor=none;" parent="yN8mX1wbEfo4K8Nz7WSZ-11" vertex="1">
          <mxGeometry y="60" width="220" height="8" as="geometry" />
        </mxCell>
        <mxCell id="yN8mX1wbEfo4K8Nz7WSZ-14" value="&amp;nbsp;" style="text;strokeColor=none;fillColor=none;align=left;verticalAlign=top;spacingLeft=4;spacingRight=4;overflow=hidden;rotatable=0;points=[[0,0.5],[1,0.5]];portConstraint=eastwest;whiteSpace=wrap;html=1;fontColor=#464F55;rounded=1;labelBackgroundColor=none;" parent="yN8mX1wbEfo4K8Nz7WSZ-11" vertex="1">
          <mxGeometry y="68" width="220" height="32" as="geometry" />
        </mxCell>
        <mxCell id="yN8mX1wbEfo4K8Nz7WSZ-29" style="edgeStyle=orthogonalEdgeStyle;rounded=0;orthogonalLoop=1;jettySize=auto;html=1;entryX=0;entryY=0.5;entryDx=0;entryDy=0;exitX=0;exitY=0.5;exitDx=0;exitDy=0;endArrow=block;endFill=0;dashed=1;endSize=10;startSize=10;" parent="1" source="yN8mX1wbEfo4K8Nz7WSZ-16" target="yN8mX1wbEfo4K8Nz7WSZ-2" edge="1">
          <mxGeometry relative="1" as="geometry" />
        </mxCell>
        <mxCell id="yN8mX1wbEfo4K8Nz7WSZ-15" value="&lt;br&gt;Name2Encoder" style="swimlane;fontStyle=1;align=center;verticalAlign=top;childLayout=stackLayout;horizontal=1;startSize=40;horizontalStack=0;resizeParent=1;resizeParentMax=0;resizeLast=0;collapsible=1;marginBottom=0;whiteSpace=wrap;html=1;strokeColor=#464F55;fontColor=#FFFFFF;fillColor=#2C6879;rounded=1;labelBackgroundColor=none;" parent="1" vertex="1">
          <mxGeometry x="-1385" y="379" width="220" height="100" as="geometry">
            <mxRectangle x="299" y="276" width="120" height="40" as="alternateBounds" />
          </mxGeometry>
        </mxCell>
        <mxCell id="YMNnF1_kSBJPY39AivQV-13" style="edgeStyle=orthogonalEdgeStyle;rounded=0;orthogonalLoop=1;jettySize=auto;html=1;exitX=1;exitY=0.5;exitDx=0;exitDy=0;endArrow=none;endFill=0;endSize=10;startSize=10;startArrow=open;startFill=0;" edge="1" parent="yN8mX1wbEfo4K8Nz7WSZ-15" source="yN8mX1wbEfo4K8Nz7WSZ-16">
          <mxGeometry relative="1" as="geometry">
            <mxPoint x="374.5714285714289" y="49.42857142857156" as="targetPoint" />
          </mxGeometry>
        </mxCell>
        <mxCell id="yN8mX1wbEfo4K8Nz7WSZ-16" value="&amp;nbsp;" style="text;strokeColor=none;fillColor=none;align=left;verticalAlign=top;spacingLeft=4;spacingRight=4;overflow=hidden;rotatable=0;points=[[0,0.5],[1,0.5]];portConstraint=eastwest;whiteSpace=wrap;html=1;fontColor=#464F55;rounded=1;labelBackgroundColor=none;" parent="yN8mX1wbEfo4K8Nz7WSZ-15" vertex="1">
          <mxGeometry y="40" width="220" height="20" as="geometry" />
        </mxCell>
        <mxCell id="yN8mX1wbEfo4K8Nz7WSZ-17" value="" style="line;strokeWidth=1;fillColor=none;align=left;verticalAlign=middle;spacingTop=-1;spacingLeft=3;spacingRight=3;rotatable=0;labelPosition=right;points=[];portConstraint=eastwest;strokeColor=#464F55;fontColor=#1A1A1A;rounded=1;labelBackgroundColor=none;" parent="yN8mX1wbEfo4K8Nz7WSZ-15" vertex="1">
          <mxGeometry y="60" width="220" height="8" as="geometry" />
        </mxCell>
        <mxCell id="yN8mX1wbEfo4K8Nz7WSZ-18" value="&amp;nbsp;" style="text;strokeColor=none;fillColor=none;align=left;verticalAlign=top;spacingLeft=4;spacingRight=4;overflow=hidden;rotatable=0;points=[[0,0.5],[1,0.5]];portConstraint=eastwest;whiteSpace=wrap;html=1;fontColor=#464F55;rounded=1;labelBackgroundColor=none;" parent="yN8mX1wbEfo4K8Nz7WSZ-15" vertex="1">
          <mxGeometry y="68" width="220" height="32" as="geometry" />
        </mxCell>
        <mxCell id="yN8mX1wbEfo4K8Nz7WSZ-19" value="&lt;br&gt;Name1Decoder" style="swimlane;fontStyle=1;align=center;verticalAlign=top;childLayout=stackLayout;horizontal=1;startSize=40;horizontalStack=0;resizeParent=1;resizeParentMax=0;resizeLast=0;collapsible=1;marginBottom=0;whiteSpace=wrap;html=1;strokeColor=#464F55;fontColor=#FFFFFF;fillColor=#2C6879;rounded=1;labelBackgroundColor=none;" parent="1" vertex="1">
          <mxGeometry x="-1386.75" y="648" width="220" height="100" as="geometry">
            <mxRectangle x="299" y="276" width="120" height="40" as="alternateBounds" />
          </mxGeometry>
        </mxCell>
        <mxCell id="yN8mX1wbEfo4K8Nz7WSZ-32" style="edgeStyle=orthogonalEdgeStyle;rounded=0;orthogonalLoop=1;jettySize=auto;html=1;exitX=0;exitY=0.5;exitDx=0;exitDy=0;endArrow=none;endFill=0;dashed=1;" parent="yN8mX1wbEfo4K8Nz7WSZ-19" source="yN8mX1wbEfo4K8Nz7WSZ-20" edge="1">
          <mxGeometry relative="1" as="geometry">
            <mxPoint x="-19.833333333333258" y="50.333333333333485" as="targetPoint" />
          </mxGeometry>
        </mxCell>
        <mxCell id="YMNnF1_kSBJPY39AivQV-14" style="edgeStyle=orthogonalEdgeStyle;rounded=0;orthogonalLoop=1;jettySize=auto;html=1;exitX=1;exitY=0.5;exitDx=0;exitDy=0;endArrow=none;endFill=0;endSize=10;startSize=10;startArrow=open;startFill=0;" edge="1" parent="yN8mX1wbEfo4K8Nz7WSZ-19" source="yN8mX1wbEfo4K8Nz7WSZ-20">
          <mxGeometry relative="1" as="geometry">
            <mxPoint x="376.3214285714289" y="50.42857142857156" as="targetPoint" />
          </mxGeometry>
        </mxCell>
        <mxCell id="yN8mX1wbEfo4K8Nz7WSZ-20" value="&amp;nbsp;" style="text;strokeColor=none;fillColor=none;align=left;verticalAlign=top;spacingLeft=4;spacingRight=4;overflow=hidden;rotatable=0;points=[[0,0.5],[1,0.5]];portConstraint=eastwest;whiteSpace=wrap;html=1;fontColor=#464F55;rounded=1;labelBackgroundColor=none;" parent="yN8mX1wbEfo4K8Nz7WSZ-19" vertex="1">
          <mxGeometry y="40" width="220" height="20" as="geometry" />
        </mxCell>
        <mxCell id="yN8mX1wbEfo4K8Nz7WSZ-21" value="" style="line;strokeWidth=1;fillColor=none;align=left;verticalAlign=middle;spacingTop=-1;spacingLeft=3;spacingRight=3;rotatable=0;labelPosition=right;points=[];portConstraint=eastwest;strokeColor=#464F55;fontColor=#1A1A1A;rounded=1;labelBackgroundColor=none;" parent="yN8mX1wbEfo4K8Nz7WSZ-19" vertex="1">
          <mxGeometry y="60" width="220" height="8" as="geometry" />
        </mxCell>
        <mxCell id="yN8mX1wbEfo4K8Nz7WSZ-22" value="&amp;nbsp;" style="text;strokeColor=none;fillColor=none;align=left;verticalAlign=top;spacingLeft=4;spacingRight=4;overflow=hidden;rotatable=0;points=[[0,0.5],[1,0.5]];portConstraint=eastwest;whiteSpace=wrap;html=1;fontColor=#464F55;rounded=1;labelBackgroundColor=none;" parent="yN8mX1wbEfo4K8Nz7WSZ-19" vertex="1">
          <mxGeometry y="68" width="220" height="32" as="geometry" />
        </mxCell>
        <mxCell id="yN8mX1wbEfo4K8Nz7WSZ-23" value="&lt;br&gt;Name2Decoder" style="swimlane;fontStyle=1;align=center;verticalAlign=top;childLayout=stackLayout;horizontal=1;startSize=40;horizontalStack=0;resizeParent=1;resizeParentMax=0;resizeLast=0;collapsible=1;marginBottom=0;whiteSpace=wrap;html=1;strokeColor=#464F55;fontColor=#FFFFFF;fillColor=#2C6879;rounded=1;labelBackgroundColor=none;" parent="1" vertex="1">
          <mxGeometry x="-1385" y="777" width="220" height="100" as="geometry">
            <mxRectangle x="299" y="276" width="120" height="40" as="alternateBounds" />
          </mxGeometry>
        </mxCell>
        <mxCell id="yN8mX1wbEfo4K8Nz7WSZ-24" value="&amp;nbsp;" style="text;strokeColor=none;fillColor=none;align=left;verticalAlign=top;spacingLeft=4;spacingRight=4;overflow=hidden;rotatable=0;points=[[0,0.5],[1,0.5]];portConstraint=eastwest;whiteSpace=wrap;html=1;fontColor=#464F55;rounded=1;labelBackgroundColor=none;" parent="yN8mX1wbEfo4K8Nz7WSZ-23" vertex="1">
          <mxGeometry y="40" width="220" height="20" as="geometry" />
        </mxCell>
        <mxCell id="yN8mX1wbEfo4K8Nz7WSZ-25" value="" style="line;strokeWidth=1;fillColor=none;align=left;verticalAlign=middle;spacingTop=-1;spacingLeft=3;spacingRight=3;rotatable=0;labelPosition=right;points=[];portConstraint=eastwest;strokeColor=#464F55;fontColor=#1A1A1A;rounded=1;labelBackgroundColor=none;" parent="yN8mX1wbEfo4K8Nz7WSZ-23" vertex="1">
          <mxGeometry y="60" width="220" height="8" as="geometry" />
        </mxCell>
        <mxCell id="yN8mX1wbEfo4K8Nz7WSZ-26" value="&amp;nbsp;" style="text;strokeColor=none;fillColor=none;align=left;verticalAlign=top;spacingLeft=4;spacingRight=4;overflow=hidden;rotatable=0;points=[[0,0.5],[1,0.5]];portConstraint=eastwest;whiteSpace=wrap;html=1;fontColor=#464F55;rounded=1;labelBackgroundColor=none;" parent="yN8mX1wbEfo4K8Nz7WSZ-23" vertex="1">
          <mxGeometry y="68" width="220" height="32" as="geometry" />
        </mxCell>
        <mxCell id="yN8mX1wbEfo4K8Nz7WSZ-27" value="Algoriuthm1&lt;br&gt;LZW" style="text;html=1;strokeColor=none;fillColor=none;align=center;verticalAlign=middle;whiteSpace=wrap;rounded=0;" parent="1" vertex="1">
          <mxGeometry x="-1489" y="290" width="60" height="30" as="geometry" />
        </mxCell>
        <mxCell id="yN8mX1wbEfo4K8Nz7WSZ-28" value="Algorithm2&lt;br&gt;Huffman Encoding&lt;span style=&quot;margin: 0px; padding: 0px; user-select: text; -webkit-user-drag: none; -webkit-tap-highlight-color: transparent; text-align: left; font-size: 12pt; line-height: 19px; font-family: Calibri, sans-serif; color: rgb(23, 43, 77);&quot; class=&quot;EOP SCXO60980715 BCX0&quot;&gt;&amp;nbsp;&lt;/span&gt;" style="text;html=1;strokeColor=none;fillColor=none;align=center;verticalAlign=middle;whiteSpace=wrap;rounded=0;" parent="1" vertex="1">
          <mxGeometry x="-1524" y="407" width="119" height="30" as="geometry" />
        </mxCell>
        <mxCell id="yN8mX1wbEfo4K8Nz7WSZ-31" style="edgeStyle=orthogonalEdgeStyle;rounded=0;orthogonalLoop=1;jettySize=auto;html=1;entryX=0;entryY=0.5;entryDx=0;entryDy=0;endArrow=block;endFill=0;endSize=10;startSize=10;dashed=1;" parent="1" source="yN8mX1wbEfo4K8Nz7WSZ-24" target="yN8mX1wbEfo4K8Nz7WSZ-8" edge="1">
          <mxGeometry relative="1" as="geometry" />
        </mxCell>
        <mxCell id="yN8mX1wbEfo4K8Nz7WSZ-33" value="&lt;br&gt;FileHandler" style="swimlane;fontStyle=1;align=center;verticalAlign=top;childLayout=stackLayout;horizontal=1;startSize=40;horizontalStack=0;resizeParent=1;resizeParentMax=0;resizeLast=0;collapsible=1;marginBottom=0;whiteSpace=wrap;html=1;strokeColor=#464F55;fontColor=#FFFFFF;fillColor=#2C6879;rounded=1;labelBackgroundColor=none;" parent="1" vertex="1">
          <mxGeometry x="-1796" y="110" width="220" height="100" as="geometry">
            <mxRectangle x="299" y="276" width="120" height="40" as="alternateBounds" />
          </mxGeometry>
        </mxCell>
        <mxCell id="yN8mX1wbEfo4K8Nz7WSZ-34" value="&amp;nbsp;" style="text;strokeColor=none;fillColor=none;align=left;verticalAlign=top;spacingLeft=4;spacingRight=4;overflow=hidden;rotatable=0;points=[[0,0.5],[1,0.5]];portConstraint=eastwest;whiteSpace=wrap;html=1;fontColor=#464F55;rounded=1;labelBackgroundColor=none;" parent="yN8mX1wbEfo4K8Nz7WSZ-33" vertex="1">
          <mxGeometry y="40" width="220" height="20" as="geometry" />
        </mxCell>
        <mxCell id="yN8mX1wbEfo4K8Nz7WSZ-35" value="" style="line;strokeWidth=1;fillColor=none;align=left;verticalAlign=middle;spacingTop=-1;spacingLeft=3;spacingRight=3;rotatable=0;labelPosition=right;points=[];portConstraint=eastwest;strokeColor=#464F55;fontColor=#1A1A1A;rounded=1;labelBackgroundColor=none;" parent="yN8mX1wbEfo4K8Nz7WSZ-33" vertex="1">
          <mxGeometry y="60" width="220" height="8" as="geometry" />
        </mxCell>
        <mxCell id="yN8mX1wbEfo4K8Nz7WSZ-36" value="&amp;nbsp;" style="text;strokeColor=none;fillColor=none;align=left;verticalAlign=top;spacingLeft=4;spacingRight=4;overflow=hidden;rotatable=0;points=[[0,0.5],[1,0.5]];portConstraint=eastwest;whiteSpace=wrap;html=1;fontColor=#464F55;rounded=1;labelBackgroundColor=none;" parent="yN8mX1wbEfo4K8Nz7WSZ-33" vertex="1">
          <mxGeometry y="68" width="220" height="32" as="geometry" />
        </mxCell>
        <mxCell id="yN8mX1wbEfo4K8Nz7WSZ-38" value="&lt;br&gt;CommandDispatcher" style="swimlane;fontStyle=1;align=center;verticalAlign=top;childLayout=stackLayout;horizontal=1;startSize=40;horizontalStack=0;resizeParent=1;resizeParentMax=0;resizeLast=0;collapsible=1;marginBottom=0;whiteSpace=wrap;html=1;strokeColor=#464F55;fontColor=#FFFFFF;fillColor=#2C6879;rounded=1;labelBackgroundColor=none;" parent="1" vertex="1">
          <mxGeometry x="-94" y="205" width="220" height="100" as="geometry">
            <mxRectangle x="299" y="276" width="120" height="40" as="alternateBounds" />
          </mxGeometry>
        </mxCell>
        <mxCell id="yN8mX1wbEfo4K8Nz7WSZ-39" value="&amp;nbsp;" style="text;strokeColor=none;fillColor=none;align=left;verticalAlign=top;spacingLeft=4;spacingRight=4;overflow=hidden;rotatable=0;points=[[0,0.5],[1,0.5]];portConstraint=eastwest;whiteSpace=wrap;html=1;fontColor=#464F55;rounded=1;labelBackgroundColor=none;" parent="yN8mX1wbEfo4K8Nz7WSZ-38" vertex="1">
          <mxGeometry y="40" width="220" height="20" as="geometry" />
        </mxCell>
        <mxCell id="yN8mX1wbEfo4K8Nz7WSZ-40" value="" style="line;strokeWidth=1;fillColor=none;align=left;verticalAlign=middle;spacingTop=-1;spacingLeft=3;spacingRight=3;rotatable=0;labelPosition=right;points=[];portConstraint=eastwest;strokeColor=#464F55;fontColor=#1A1A1A;rounded=1;labelBackgroundColor=none;" parent="yN8mX1wbEfo4K8Nz7WSZ-38" vertex="1">
          <mxGeometry y="60" width="220" height="8" as="geometry" />
        </mxCell>
        <mxCell id="yN8mX1wbEfo4K8Nz7WSZ-41" value="+update()" style="text;strokeColor=none;fillColor=none;align=left;verticalAlign=top;spacingLeft=4;spacingRight=4;overflow=hidden;rotatable=0;points=[[0,0.5],[1,0.5]];portConstraint=eastwest;whiteSpace=wrap;html=1;fontColor=#464F55;rounded=1;labelBackgroundColor=none;" parent="yN8mX1wbEfo4K8Nz7WSZ-38" vertex="1">
          <mxGeometry y="68" width="220" height="32" as="geometry" />
        </mxCell>
        <mxCell id="yN8mX1wbEfo4K8Nz7WSZ-42" value="&lt;font style=&quot;font-size: 18px;&quot;&gt;EventLoop here&lt;/font&gt;" style="text;html=1;strokeColor=none;fillColor=none;align=center;verticalAlign=middle;whiteSpace=wrap;rounded=0;" parent="1" vertex="1">
          <mxGeometry x="168" y="254" width="60" height="30" as="geometry" />
        </mxCell>
        <mxCell id="yN8mX1wbEfo4K8Nz7WSZ-43" value="&lt;br&gt;PerformanceCalculator" style="swimlane;fontStyle=1;align=center;verticalAlign=top;childLayout=stackLayout;horizontal=1;startSize=40;horizontalStack=0;resizeParent=1;resizeParentMax=0;resizeLast=0;collapsible=1;marginBottom=0;whiteSpace=wrap;html=1;strokeColor=#464F55;fontColor=#FFFFFF;fillColor=#2C6879;rounded=1;labelBackgroundColor=none;" parent="1" vertex="1">
          <mxGeometry x="-1382" y="991" width="220" height="100" as="geometry">
            <mxRectangle x="299" y="276" width="120" height="40" as="alternateBounds" />
          </mxGeometry>
        </mxCell>
        <mxCell id="yN8mX1wbEfo4K8Nz7WSZ-44" value="&amp;nbsp;" style="text;strokeColor=none;fillColor=none;align=left;verticalAlign=top;spacingLeft=4;spacingRight=4;overflow=hidden;rotatable=0;points=[[0,0.5],[1,0.5]];portConstraint=eastwest;whiteSpace=wrap;html=1;fontColor=#464F55;rounded=1;labelBackgroundColor=none;" parent="yN8mX1wbEfo4K8Nz7WSZ-43" vertex="1">
          <mxGeometry y="40" width="220" height="20" as="geometry" />
        </mxCell>
        <mxCell id="yN8mX1wbEfo4K8Nz7WSZ-45" value="" style="line;strokeWidth=1;fillColor=none;align=left;verticalAlign=middle;spacingTop=-1;spacingLeft=3;spacingRight=3;rotatable=0;labelPosition=right;points=[];portConstraint=eastwest;strokeColor=#464F55;fontColor=#1A1A1A;rounded=1;labelBackgroundColor=none;" parent="yN8mX1wbEfo4K8Nz7WSZ-43" vertex="1">
          <mxGeometry y="60" width="220" height="8" as="geometry" />
        </mxCell>
        <mxCell id="yN8mX1wbEfo4K8Nz7WSZ-46" value="&amp;nbsp;" style="text;strokeColor=none;fillColor=none;align=left;verticalAlign=top;spacingLeft=4;spacingRight=4;overflow=hidden;rotatable=0;points=[[0,0.5],[1,0.5]];portConstraint=eastwest;whiteSpace=wrap;html=1;fontColor=#464F55;rounded=1;labelBackgroundColor=none;" parent="yN8mX1wbEfo4K8Nz7WSZ-43" vertex="1">
          <mxGeometry y="68" width="220" height="32" as="geometry" />
        </mxCell>
        <mxCell id="yN8mX1wbEfo4K8Nz7WSZ-63" value="main.py" style="rounded=0;whiteSpace=wrap;html=1;" parent="1" vertex="1">
          <mxGeometry x="-51" y="369" width="120" height="60" as="geometry" />
        </mxCell>
        <mxCell id="yN8mX1wbEfo4K8Nz7WSZ-64" value="&lt;p style=&quot;line-height: 120%;&quot;&gt;&lt;font style=&quot;font-size: 9px;&quot;&gt;unite as Algorithm with methods encode/decode?&lt;/font&gt;&lt;/p&gt;" style="shape=cross;whiteSpace=wrap;html=1;opacity=30;direction=south;textOpacity=50;" parent="1" vertex="1">
          <mxGeometry x="-1517.25" y="442" width="135.25" height="135" as="geometry" />
        </mxCell>
        <mxCell id="yN8mX1wbEfo4K8Nz7WSZ-65" style="edgeStyle=orthogonalEdgeStyle;rounded=0;orthogonalLoop=1;jettySize=auto;html=1;exitX=0.465;exitY=0.99;exitDx=0;exitDy=0;exitPerimeter=0;endArrow=none;endFill=0;" parent="1" source="yN8mX1wbEfo4K8Nz7WSZ-41" target="yN8mX1wbEfo4K8Nz7WSZ-63" edge="1">
          <mxGeometry relative="1" as="geometry">
            <Array as="points">
              <mxPoint x="8" y="307" />
              <mxPoint x="9" y="307" />
            </Array>
          </mxGeometry>
        </mxCell>
        <mxCell id="yN8mX1wbEfo4K8Nz7WSZ-66" style="edgeStyle=orthogonalEdgeStyle;rounded=0;orthogonalLoop=1;jettySize=auto;html=1;entryX=0;entryY=0.5;entryDx=0;entryDy=0;endSize=10;startSize=10;endArrow=diamond;endFill=0;startArrow=open;startFill=0;exitX=1;exitY=0.5;exitDx=0;exitDy=0;" parent="1" source="YMNnF1_kSBJPY39AivQV-4" target="yN8mX1wbEfo4K8Nz7WSZ-39" edge="1">
          <mxGeometry relative="1" as="geometry" />
        </mxCell>
        <mxCell id="yN8mX1wbEfo4K8Nz7WSZ-74" value="&lt;span style=&quot;font-size: 24px;&quot;&gt;DATA LAYER&lt;/span&gt;" style="text;html=1;strokeColor=none;fillColor=none;align=center;verticalAlign=middle;whiteSpace=wrap;rounded=0;" parent="1" vertex="1">
          <mxGeometry x="-1756" y="-78.75" width="210" height="40" as="geometry" />
        </mxCell>
        <mxCell id="yN8mX1wbEfo4K8Nz7WSZ-75" value="" style="shape=curlyBracket;whiteSpace=wrap;html=1;rounded=1;flipH=1;labelPosition=right;verticalLabelPosition=middle;align=left;verticalAlign=middle;rotation=-90;" parent="1" vertex="1">
          <mxGeometry x="-1664.75" y="-155" width="20" height="252.5" as="geometry" />
        </mxCell>
        <mxCell id="yN8mX1wbEfo4K8Nz7WSZ-76" value="&lt;span style=&quot;font-size: 24px;&quot;&gt;CORE&lt;/span&gt;" style="text;html=1;strokeColor=none;fillColor=none;align=center;verticalAlign=middle;whiteSpace=wrap;rounded=0;" parent="1" vertex="1">
          <mxGeometry x="-1101" y="-87" width="210" height="40" as="geometry" />
        </mxCell>
        <mxCell id="yN8mX1wbEfo4K8Nz7WSZ-77" value="" style="shape=curlyBracket;whiteSpace=wrap;html=1;rounded=1;flipH=1;labelPosition=right;verticalLabelPosition=middle;align=left;verticalAlign=middle;rotation=-90;" parent="1" vertex="1">
          <mxGeometry x="-1005.12" y="-556.62" width="20" height="1055.75" as="geometry" />
        </mxCell>
        <mxCell id="yN8mX1wbEfo4K8Nz7WSZ-78" value="&lt;span style=&quot;font-size: 24px;&quot;&gt;USER COMMUNICATION&lt;br&gt;(FRONTEND)&lt;br&gt;&lt;/span&gt;" style="text;html=1;strokeColor=none;fillColor=none;align=center;verticalAlign=middle;whiteSpace=wrap;rounded=0;" parent="1" vertex="1">
          <mxGeometry x="-454" y="-92" width="511" height="40" as="geometry" />
        </mxCell>
        <mxCell id="yN8mX1wbEfo4K8Nz7WSZ-79" value="" style="shape=curlyBracket;whiteSpace=wrap;html=1;rounded=1;flipH=1;labelPosition=right;verticalLabelPosition=middle;align=left;verticalAlign=middle;rotation=-90;" parent="1" vertex="1">
          <mxGeometry x="-205" y="-296.87" width="20" height="536.25" as="geometry" />
        </mxCell>
        <mxCell id="yN8mX1wbEfo4K8Nz7WSZ-80" value="&lt;span style=&quot;font-size: 24px;&quot;&gt;BACKEND&lt;/span&gt;" style="text;html=1;strokeColor=none;fillColor=none;align=center;verticalAlign=middle;whiteSpace=wrap;rounded=0;" parent="1" vertex="1">
          <mxGeometry x="-1227.25" y="-162" width="210" height="40" as="geometry" />
        </mxCell>
        <mxCell id="yN8mX1wbEfo4K8Nz7WSZ-81" value="" style="shape=curlyBracket;whiteSpace=wrap;html=1;rounded=1;flipH=1;labelPosition=right;verticalLabelPosition=middle;align=left;verticalAlign=middle;rotation=-90;" parent="1" vertex="1">
          <mxGeometry x="-1132.25" y="-769.25" width="20" height="1325" as="geometry" />
        </mxCell>
        <mxCell id="yN8mX1wbEfo4K8Nz7WSZ-83" value="&lt;font style=&quot;font-size: 18px;&quot;&gt;OBSERVER p.144&lt;br&gt;subject(produces data) - observer&amp;nbsp;(consumes data)&lt;br&gt;&lt;/font&gt;" style="text;html=1;strokeColor=none;fillColor=none;align=center;verticalAlign=middle;whiteSpace=wrap;rounded=0;" parent="1" vertex="1">
          <mxGeometry x="-495" y="372" width="434" height="30" as="geometry" />
        </mxCell>
        <mxCell id="YMNnF1_kSBJPY39AivQV-1" value="&lt;br&gt;MainLogic" style="swimlane;fontStyle=1;align=center;verticalAlign=top;childLayout=stackLayout;horizontal=1;startSize=40;horizontalStack=0;resizeParent=1;resizeParentMax=0;resizeLast=0;collapsible=1;marginBottom=0;whiteSpace=wrap;html=1;strokeColor=#464F55;fontColor=#FFFFFF;fillColor=#2C6879;rounded=1;labelBackgroundColor=none;" vertex="1" parent="1">
          <mxGeometry x="-724" y="228" width="220" height="169" as="geometry">
            <mxRectangle x="299" y="276" width="120" height="40" as="alternateBounds" />
          </mxGeometry>
        </mxCell>
        <mxCell id="YMNnF1_kSBJPY39AivQV-2" value="&amp;nbsp;" style="text;strokeColor=none;fillColor=none;align=left;verticalAlign=top;spacingLeft=4;spacingRight=4;overflow=hidden;rotatable=0;points=[[0,0.5],[1,0.5]];portConstraint=eastwest;whiteSpace=wrap;html=1;fontColor=#464F55;rounded=1;labelBackgroundColor=none;" vertex="1" parent="YMNnF1_kSBJPY39AivQV-1">
          <mxGeometry y="40" width="220" height="20" as="geometry" />
        </mxCell>
        <mxCell id="YMNnF1_kSBJPY39AivQV-3" value="" style="line;strokeWidth=1;fillColor=none;align=left;verticalAlign=middle;spacingTop=-1;spacingLeft=3;spacingRight=3;rotatable=0;labelPosition=right;points=[];portConstraint=eastwest;strokeColor=#464F55;fontColor=#1A1A1A;rounded=1;labelBackgroundColor=none;" vertex="1" parent="YMNnF1_kSBJPY39AivQV-1">
          <mxGeometry y="60" width="220" height="8" as="geometry" />
        </mxCell>
        <mxCell id="YMNnF1_kSBJPY39AivQV-4" value="+ attach()&lt;br style=&quot;border-color: var(--border-color);&quot;&gt;+ detach()&lt;br style=&quot;border-color: var(--border-color);&quot;&gt;+ notify()" style="text;strokeColor=none;fillColor=none;align=left;verticalAlign=top;spacingLeft=4;spacingRight=4;overflow=hidden;rotatable=0;points=[[0,0.5],[1,0.5]];portConstraint=eastwest;whiteSpace=wrap;html=1;fontColor=#464F55;rounded=1;labelBackgroundColor=none;" vertex="1" parent="YMNnF1_kSBJPY39AivQV-1">
          <mxGeometry y="68" width="220" height="101" as="geometry" />
        </mxCell>
        <mxCell id="YMNnF1_kSBJPY39AivQV-5" value="" style="shape=collate;whiteSpace=wrap;html=1;rotation=-90;" vertex="1" parent="1">
          <mxGeometry x="-654" y="98.75" width="80" height="157" as="geometry" />
        </mxCell>
        <mxCell id="YMNnF1_kSBJPY39AivQV-6" value="" style="ellipse;whiteSpace=wrap;html=1;aspect=fixed;fillColor=#000000;" vertex="1" parent="1">
          <mxGeometry x="-622.25" y="169" width="16.5" height="16.5" as="geometry" />
        </mxCell>
        <mxCell id="YMNnF1_kSBJPY39AivQV-9" style="edgeStyle=orthogonalEdgeStyle;rounded=0;orthogonalLoop=1;jettySize=auto;html=1;entryX=-0.005;entryY=0.795;entryDx=0;entryDy=0;endArrow=diamond;endFill=0;endSize=10;startSize=10;startArrow=open;startFill=0;entryPerimeter=0;" edge="1" parent="1" source="yN8mX1wbEfo4K8Nz7WSZ-44" target="YMNnF1_kSBJPY39AivQV-4">
          <mxGeometry relative="1" as="geometry" />
        </mxCell>
        <mxCell id="YMNnF1_kSBJPY39AivQV-11" style="edgeStyle=orthogonalEdgeStyle;rounded=0;orthogonalLoop=1;jettySize=auto;html=1;entryX=0.009;entryY=0.142;entryDx=0;entryDy=0;entryPerimeter=0;endArrow=diamond;endFill=0;endSize=10;startSize=10;startArrow=open;startFill=0;" edge="1" parent="1" source="yN8mX1wbEfo4K8Nz7WSZ-24" target="YMNnF1_kSBJPY39AivQV-4">
          <mxGeometry relative="1" as="geometry">
            <Array as="points">
              <mxPoint x="-1012" y="827" />
              <mxPoint x="-1012" y="309" />
              <mxPoint x="-740" y="309" />
              <mxPoint x="-740" y="310" />
            </Array>
          </mxGeometry>
        </mxCell>
        <mxCell id="YMNnF1_kSBJPY39AivQV-15" style="edgeStyle=orthogonalEdgeStyle;rounded=0;orthogonalLoop=1;jettySize=auto;html=1;entryX=0;entryY=0.5;entryDx=0;entryDy=0;endArrow=diamond;endFill=0;endSize=10;startSize=10;startArrow=open;startFill=0;" edge="1" parent="1" source="yN8mX1wbEfo4K8Nz7WSZ-34" target="YMNnF1_kSBJPY39AivQV-2">
          <mxGeometry relative="1" as="geometry">
            <Array as="points">
              <mxPoint x="-1485" y="160" />
              <mxPoint x="-1485" y="92" />
              <mxPoint x="-1017" y="92" />
              <mxPoint x="-1017" y="278" />
            </Array>
          </mxGeometry>
        </mxCell>
        <mxCell id="YMNnF1_kSBJPY39AivQV-16" value="Multi-Layered&#xa;Architecture" style="text;whiteSpace=wrap;fontSize=30;" vertex="1" parent="1">
          <mxGeometry x="120" y="-104.13" width="253" height="90.75" as="geometry" />
        </mxCell>
        <mxCell id="YMNnF1_kSBJPY39AivQV-17" value="Algoriuthm1&lt;br&gt;LZW" style="text;html=1;strokeColor=none;fillColor=none;align=center;verticalAlign=middle;whiteSpace=wrap;rounded=0;" vertex="1" parent="1">
          <mxGeometry x="-1489" y="672" width="60" height="30" as="geometry" />
        </mxCell>
        <mxCell id="YMNnF1_kSBJPY39AivQV-18" value="Algorithm2&lt;br&gt;Huffman Encoding&lt;span style=&quot;margin: 0px; padding: 0px; user-select: text; -webkit-user-drag: none; -webkit-tap-highlight-color: transparent; text-align: left; font-size: 12pt; line-height: 19px; font-family: Calibri, sans-serif; color: rgb(23, 43, 77);&quot; class=&quot;EOP SCXO60980715 BCX0&quot;&gt;&amp;nbsp;&lt;/span&gt;" style="text;html=1;strokeColor=none;fillColor=none;align=center;verticalAlign=middle;whiteSpace=wrap;rounded=0;" vertex="1" parent="1">
          <mxGeometry x="-1524" y="789" width="119" height="30" as="geometry" />
        </mxCell>
        <mxCell id="YMNnF1_kSBJPY39AivQV-19" value="&lt;font style=&quot;font-size: 18px;&quot;&gt;DECORATOR PATTERN?&lt;/font&gt;" style="text;html=1;strokeColor=none;fillColor=none;align=center;verticalAlign=middle;whiteSpace=wrap;rounded=0;textOpacity=30;" vertex="1" parent="1">
          <mxGeometry x="-1005.12" y="310" width="233" height="30" as="geometry" />
        </mxCell>
        <mxCell id="YMNnF1_kSBJPY39AivQV-20" value="&lt;i style=&quot;border-color: var(--border-color);&quot;&gt;&amp;lt;&amp;lt; abstract &amp;gt;&amp;gt;&lt;/i&gt;&lt;br&gt;&lt;i&gt;FileHandler&lt;/i&gt;" style="swimlane;fontStyle=1;align=center;verticalAlign=top;childLayout=stackLayout;horizontal=1;startSize=40;horizontalStack=0;resizeParent=1;resizeParentMax=0;resizeLast=0;collapsible=1;marginBottom=0;whiteSpace=wrap;html=1;strokeColor=#464F55;fontColor=#FFFFFF;fillColor=#2C6879;rounded=1;labelBackgroundColor=none;" vertex="1" parent="1">
          <mxGeometry x="-1796" y="-1.25" width="220" height="100" as="geometry">
            <mxRectangle x="299" y="276" width="120" height="40" as="alternateBounds" />
          </mxGeometry>
        </mxCell>
        <mxCell id="YMNnF1_kSBJPY39AivQV-21" value="&amp;nbsp;" style="text;strokeColor=none;fillColor=none;align=left;verticalAlign=top;spacingLeft=4;spacingRight=4;overflow=hidden;rotatable=0;points=[[0,0.5],[1,0.5]];portConstraint=eastwest;whiteSpace=wrap;html=1;fontColor=#464F55;rounded=1;labelBackgroundColor=none;" vertex="1" parent="YMNnF1_kSBJPY39AivQV-20">
          <mxGeometry y="40" width="220" height="20" as="geometry" />
        </mxCell>
        <mxCell id="YMNnF1_kSBJPY39AivQV-22" value="" style="line;strokeWidth=1;fillColor=none;align=left;verticalAlign=middle;spacingTop=-1;spacingLeft=3;spacingRight=3;rotatable=0;labelPosition=right;points=[];portConstraint=eastwest;strokeColor=#464F55;fontColor=#1A1A1A;rounded=1;labelBackgroundColor=none;" vertex="1" parent="YMNnF1_kSBJPY39AivQV-20">
          <mxGeometry y="60" width="220" height="8" as="geometry" />
        </mxCell>
        <mxCell id="YMNnF1_kSBJPY39AivQV-23" value="&amp;nbsp;" style="text;strokeColor=none;fillColor=none;align=left;verticalAlign=top;spacingLeft=4;spacingRight=4;overflow=hidden;rotatable=0;points=[[0,0.5],[1,0.5]];portConstraint=eastwest;whiteSpace=wrap;html=1;fontColor=#464F55;rounded=1;labelBackgroundColor=none;" vertex="1" parent="YMNnF1_kSBJPY39AivQV-20">
          <mxGeometry y="68" width="220" height="32" as="geometry" />
        </mxCell>
        <mxCell id="YMNnF1_kSBJPY39AivQV-24" style="edgeStyle=orthogonalEdgeStyle;rounded=0;orthogonalLoop=1;jettySize=auto;html=1;exitX=0;exitY=0.5;exitDx=0;exitDy=0;entryX=0;entryY=0.5;entryDx=0;entryDy=0;endArrow=block;endFill=0;dashed=1;endSize=10;startSize=10;" edge="1" parent="1" source="yN8mX1wbEfo4K8Nz7WSZ-34" target="YMNnF1_kSBJPY39AivQV-21">
          <mxGeometry relative="1" as="geometry" />
        </mxCell>
        <mxCell id="YMNnF1_kSBJPY39AivQV-25" value="&lt;br&gt;CommandDispatcher" style="swimlane;fontStyle=1;align=center;verticalAlign=top;childLayout=stackLayout;horizontal=1;startSize=40;horizontalStack=0;resizeParent=1;resizeParentMax=0;resizeLast=0;collapsible=1;marginBottom=0;whiteSpace=wrap;html=1;strokeColor=#464F55;fontColor=#FFFFFF;fillColor=#2C6879;rounded=1;labelBackgroundColor=none;" vertex="1" parent="1">
          <mxGeometry x="-96" y="89" width="220" height="100" as="geometry">
            <mxRectangle x="299" y="276" width="120" height="40" as="alternateBounds" />
          </mxGeometry>
        </mxCell>
        <mxCell id="YMNnF1_kSBJPY39AivQV-26" value="&amp;nbsp;" style="text;strokeColor=none;fillColor=none;align=left;verticalAlign=top;spacingLeft=4;spacingRight=4;overflow=hidden;rotatable=0;points=[[0,0.5],[1,0.5]];portConstraint=eastwest;whiteSpace=wrap;html=1;fontColor=#464F55;rounded=1;labelBackgroundColor=none;" vertex="1" parent="YMNnF1_kSBJPY39AivQV-25">
          <mxGeometry y="40" width="220" height="20" as="geometry" />
        </mxCell>
        <mxCell id="YMNnF1_kSBJPY39AivQV-27" value="" style="line;strokeWidth=1;fillColor=none;align=left;verticalAlign=middle;spacingTop=-1;spacingLeft=3;spacingRight=3;rotatable=0;labelPosition=right;points=[];portConstraint=eastwest;strokeColor=#464F55;fontColor=#1A1A1A;rounded=1;labelBackgroundColor=none;" vertex="1" parent="YMNnF1_kSBJPY39AivQV-25">
          <mxGeometry y="60" width="220" height="8" as="geometry" />
        </mxCell>
        <mxCell id="YMNnF1_kSBJPY39AivQV-28" value="+update()" style="text;strokeColor=none;fillColor=none;align=left;verticalAlign=top;spacingLeft=4;spacingRight=4;overflow=hidden;rotatable=0;points=[[0,0.5],[1,0.5]];portConstraint=eastwest;whiteSpace=wrap;html=1;fontColor=#464F55;rounded=1;labelBackgroundColor=none;" vertex="1" parent="YMNnF1_kSBJPY39AivQV-25">
          <mxGeometry y="68" width="220" height="32" as="geometry" />
        </mxCell>
        <mxCell id="YMNnF1_kSBJPY39AivQV-30" style="edgeStyle=orthogonalEdgeStyle;rounded=0;orthogonalLoop=1;jettySize=auto;html=1;exitX=1;exitY=0.5;exitDx=0;exitDy=0;entryX=1;entryY=0.5;entryDx=0;entryDy=0;endArrow=block;endFill=0;dashed=1;endSize=10;startSize=10;" edge="1" parent="1" source="yN8mX1wbEfo4K8Nz7WSZ-39" target="YMNnF1_kSBJPY39AivQV-26">
          <mxGeometry relative="1" as="geometry" />
        </mxCell>
      </root>
    </mxGraphModel>
  </diagram>
</mxfile>
